<svg width="26" height="26" viewBox="0 0 26 26" fill="none" xmlns="http://www.w3.org/2000/svg">
<rect width="26" height="26" rx="13" fill="white" fill-opacity="0.2"/>
<path d="M14.3513 8.25799C12.4305 6.33313 9.12715 6.6172 7.61401 9.11022C6.78497 10.4762 6.79711 12.175 7.64043 13.5317C9.06573 15.8258 11.9963 16.19 13.935 14.6823L14.4549 15.2032C14.5591 15.3077 14.5591 15.4773 14.4549 15.5818C14.3506 15.6862 14.3506 15.8558 14.4549 15.9603L17.3533 18.8648C17.5333 19.0451 17.8253 19.0451 18.0053 18.8648L18.865 18.0032C19.045 17.8229 19.045 17.5302 18.865 17.3499L15.9666 14.4455C15.8623 14.341 15.6931 14.341 15.5888 14.4455C15.4846 14.5499 15.3154 14.5499 15.2111 14.4455L14.6912 13.9245C15.9973 12.2379 15.8966 9.80432 14.3521 8.25727L14.3513 8.25799ZM9.03574 13.5846C7.77896 12.3252 7.77825 10.2752 9.03574 9.01577C10.2925 7.75638 12.3391 7.75566 13.5959 9.01577C14.8526 10.2752 14.8526 12.326 13.5959 13.5853C12.3391 14.8447 10.2932 14.8447 9.03646 13.5853L9.03574 13.5846Z" fill="white"/>
</svg>
